<svg width="196" height="214" viewBox="0 0 196 214" fill="none" xmlns="http://www.w3.org/2000/svg">
<g clip-path="url(#clip0_466_3684)">
<path d="M84.8924 168.992C75.6273 168.992 66.3533 169.016 57.0882 168.984C50.9892 168.96 48.6932 166.9 48.6304 161.456C48.5855 157.417 48.4331 153.371 48.7021 149.34C48.8815 146.642 47.7155 145.342 45.1414 144.074C19.8665 131.619 4.37692 112.459 0.771344 86.8303C-5.80299 40.16 30.7729 6.50217 71.4836 0.920805C114.078 -4.91904 154.546 17.5922 166.43 54.7394C177.615 89.6977 162.053 124.502 125.827 142.725C122.311 144.494 120.849 146.287 121.19 149.857C121.549 153.597 121.298 157.393 121.271 161.157C121.226 166.924 119.02 168.96 112.697 168.984C103.431 169.016 94.1574 168.984 84.8924 168.984V168.992ZM85.1704 4.18401C84.6951 4.36171 84.2197 4.53133 83.7443 4.70903C84.0134 7.47952 83.6367 9.60383 79.6993 10.2177C73.116 11.2435 66.3174 11.9866 60.1287 14.0867C32.6295 23.3997 15.8932 41.4443 12.0545 67.558C8.11702 94.3421 19.4988 115.989 44.1907 131.546C46.9173 133.258 50.8009 134.203 54.1643 134.244C74.3268 134.486 94.4983 134.429 114.661 134.284C117.378 134.268 120.473 133.767 122.733 132.515C142.564 121.57 154.923 105.836 158.008 84.9483C162.941 51.4843 139.263 20.4273 102.992 12.2612C97.5657 11.0416 91.978 10.3792 86.8387 9.52306C86.2019 7.4876 85.6906 5.83176 85.1704 4.17593V4.18401Z" fill="#A3CEF1"/>
<path d="M33.67 46.1291C37.0334 47.9627 39.4102 48.8835 41.213 50.3697C42.361 51.3066 42.657 53.0836 43.3386 54.481C41.5358 54.7475 39.5716 55.531 37.9572 55.1514C35.7418 54.6264 33.7776 53.2209 30.4501 51.5651C28.2257 58.8346 26.1449 65.6356 23.8129 73.2848C27.6427 73.2848 30.2438 72.8809 32.5757 73.4221C34.1902 73.7936 35.4279 75.4737 36.836 76.5722C35.41 77.4849 34.1005 78.8823 32.5219 79.1973C30.2617 79.6496 27.8042 79.3104 24.8533 79.3104C25.0776 81.5316 25.0238 83.5186 25.526 85.3926C26.0821 87.4765 26.2166 89.3019 23.5528 89.932C20.3419 90.6912 19.8127 88.365 19.4181 86.3699C16.7722 73.204 19.0145 60.6197 25.822 48.8188C39.0783 25.8149 65.1963 14.2563 90.8748 16.6634C120.32 19.4258 143.102 37.6399 149.515 62.8086C151.533 70.7324 151.981 78.8177 149.864 86.798C149.533 88.058 147.586 88.9627 146.384 90.037C145.55 88.7042 144.133 87.4038 144.008 86.0145C143.819 83.979 144.546 81.879 144.967 79.3023C142.025 79.3023 139.586 79.6416 137.353 79.1892C135.792 78.8662 134.509 77.4526 133.092 76.5318C134.518 75.4576 135.774 73.8583 137.406 73.4302C139.46 72.889 141.828 73.3009 144.626 73.3009C144.429 65.7891 142.286 59.0123 138.465 52.0982C136.07 53.2855 134.025 54.7071 131.711 55.3129C130.231 55.7006 128.366 54.8929 126.67 54.6183C127.271 53.1967 127.469 51.3874 128.581 50.4343C130.258 48.9965 132.563 48.1565 134.823 46.9449C131.128 40.0793 124.957 35.6933 117.926 31.2832C116.535 33.3025 115.522 35.4268 113.854 36.9776C112.75 38.0034 110.705 38.2134 109.082 38.7869C108.795 37.2442 107.916 35.5479 108.356 34.191C109.028 32.0909 110.598 30.2331 112.338 27.3576C104.131 25.3949 96.615 23.5936 88.0944 21.5582C88.0944 25.096 88.489 27.4061 87.9509 29.5304C87.619 30.8551 85.888 31.897 84.7758 33.0682C83.7892 31.9213 82.2555 30.8712 81.9595 29.595C81.4841 27.5515 81.8339 25.3545 81.8339 22.7617C73.0532 22.2609 65.5281 24.781 57.8237 27.923C59.0435 29.8939 60.5144 31.5336 61.0705 33.3994C61.5638 35.0552 61.806 37.8742 60.8014 38.5688C58.6847 40.0227 56.7653 38.5446 55.5994 36.4284C54.6128 34.6514 53.3212 33.0117 51.4826 30.3139C45.4464 35.6772 39.8317 40.6608 33.6879 46.121L33.67 46.1291Z" fill="#A3CEF1"/>
<path d="M95.3952 71.3462C91.9241 71.0312 89.054 70.7727 85.8162 70.482V78.7127C86.1391 78.7611 86.453 78.8096 86.7759 78.8661C87.0091 76.9599 87.2423 75.0618 87.4755 73.1555C87.7266 73.1475 87.9777 73.1394 88.2289 73.1313C88.5159 75.1587 88.8119 77.178 89.0989 79.2054C89.4935 79.1811 89.8882 79.165 90.2828 79.1408C90.4981 77.0084 90.7043 74.876 90.9196 72.7436C91.09 72.7355 91.2604 72.7274 91.4308 72.7113C91.8793 75.2395 92.3367 77.7757 92.9018 80.9581C90.0137 84.7787 85.7803 86.1437 80.8742 84.294C76.2372 82.5494 74.5869 79.0358 76.1475 72.6305C76.3269 75.2475 76.4345 76.8711 76.5601 78.7854C79.0804 78.9065 81.5379 79.0277 83.9686 79.1488C85.1345 71.2493 84.1748 69.8843 77.8247 71.3462C78.3001 69.1654 78.336 67.1461 79.1701 65.4418C83.4125 56.7103 87.7445 48.003 92.3457 39.425C93.135 37.9549 95.3862 37.123 96.9648 36.0002C97.6195 37.7045 98.9559 39.4654 98.8034 41.1051C97.8348 51.3955 96.5343 61.6616 95.4041 71.3382L95.3952 71.3462Z" fill="#A3CEF1"/>
<path d="M84.6861 121.344C77.6962 121.344 74.1893 118.154 74.1653 111.773C74.1414 105.392 77.6782 102.201 84.7758 102.201C92.1185 102.201 95.7868 105.553 95.7808 112.257C95.7689 118.315 92.0706 121.344 84.6861 121.344Z" fill="#A3CEF1"/>
<path d="M66.8465 112.072C66.8286 118.259 63.4263 121.352 56.6397 121.352C45.4822 121.369 45.6167 122.322 45.6795 111.571C45.7333 102.201 45.6616 102.201 55.8684 102.201C63.2111 102.201 66.8705 105.489 66.8465 112.064V112.072Z" fill="#A3CEF1"/>
<path d="M124.213 111.999C124.213 118.235 120.706 121.352 113.692 121.352C106.678 121.352 103.138 118.119 103.073 111.652C103.049 105.351 106.568 102.204 113.629 102.209C120.697 102.209 124.228 105.473 124.222 111.999H124.213Z" fill="#A3CEF1"/>
<path d="M79.5199 9.40195C79.9414 9.32926 80.363 9.25656 80.7845 9.20002C80.8832 9.18387 80.9819 9.17579 81.0805 9.15964C80.8114 9.19195 80.8114 9.19195 81.0805 9.15964C81.2778 9.14348 81.4752 9.11925 81.6725 9.1031C82.4976 9.0304 83.3138 8.99809 84.139 8.99001C84.9641 8.98194 85.7893 9.02232 86.6144 9.08694C86.8118 9.1031 87.0091 9.11925 87.2064 9.14348C87.3678 9.15964 87.7984 9.21618 87.3948 9.15964C87.8522 9.22425 88.3096 9.28887 88.758 9.36964C89.9061 9.57158 91.2335 9.07886 91.5205 7.95613C91.7717 6.95455 91.1887 5.68643 89.9509 5.46834C86.0853 4.78985 82.1927 4.79793 78.336 5.50065C77.1879 5.71066 76.4166 6.99494 76.7664 7.98844C77.161 9.08694 78.2911 9.62004 79.5289 9.40195H79.5199Z" fill="#A3CEF1"/>
<path d="M80.2823 9.27269C83.3048 9.15153 86.3274 9.20808 89.35 9.44231C90.525 9.53116 91.6461 8.44881 91.5923 7.42301C91.5295 6.25181 90.6057 5.50062 89.35 5.4037C86.3364 5.16946 83.3048 5.11292 80.2823 5.23408C79.1163 5.28254 77.9862 6.13065 78.04 7.25338C78.0938 8.30342 79.0266 9.32116 80.2823 9.27269Z" fill="#A3CEF1"/>
<path d="M79.1432 9.67658C83.2959 9.57965 87.4575 9.61196 91.6102 9.76543C92.7852 9.80582 93.9063 8.80424 93.8525 7.74612C93.7987 6.61531 92.8659 5.77528 91.6102 5.72681C87.4575 5.57334 83.2959 5.54104 79.1432 5.63796C77.9682 5.66219 76.8471 6.55069 76.9009 7.65727C76.9547 8.76385 77.8875 9.70889 79.1432 9.67658Z" fill="#A3CEF1"/>
<path d="M84.8117 6.39714C87.6997 6.39714 87.6997 2.35852 84.8117 2.35852C81.9236 2.35852 81.9236 6.39714 84.8117 6.39714Z" fill="#A3CEF1"/>
<path d="M83.4484 7.21294H83.6726C83.9775 7.22101 84.2735 7.16447 84.5336 7.03524C84.8117 6.95446 85.0538 6.81715 85.2512 6.61522C85.4664 6.42944 85.6279 6.21944 85.7175 5.96904C85.8611 5.72673 85.9238 5.46825 85.9149 5.19363L85.8341 4.66053C85.7265 4.32129 85.5382 4.02243 85.2601 3.77203L84.8027 3.45702C84.4529 3.27125 84.0762 3.1824 83.6726 3.1824H83.4484C83.1434 3.17432 82.8474 3.23086 82.5873 3.36009C82.3093 3.44087 82.0671 3.57818 81.8698 3.78011C81.6546 3.96589 81.4931 4.1759 81.4034 4.42629C81.2599 4.66861 81.1971 4.92708 81.2061 5.2017L81.2868 5.7348C81.3944 6.07405 81.5828 6.3729 81.8608 6.6233L82.3183 6.93831C82.6681 7.12409 83.0448 7.21294 83.4484 7.21294Z" fill="#A3CEF1"/>
<path d="M77.5646 71.5077C77.5826 72.8486 77.6005 74.1894 77.6095 75.5383C77.6095 75.9906 77.7888 76.4106 78.0938 76.7579C78.3808 77.0891 78.7934 77.388 79.2598 77.4849C79.6544 77.5657 80.058 77.5657 80.4527 77.4849C80.919 77.388 81.6007 76.9679 81.7891 76.556C81.9774 76.1441 82.1747 75.7564 82.2913 75.3283C82.4079 74.9002 82.4797 74.4317 82.5245 73.9794C82.5963 73.2443 82.4886 72.4851 82.2913 71.7743C82.1568 71.2896 81.7352 70.8212 81.2599 70.5708C80.7845 70.3204 80.067 70.2073 79.5288 70.3688C78.3539 70.7162 77.6543 71.7581 77.9593 72.8566C78.0131 73.0424 78.0489 73.2282 78.0848 73.422L78.0041 72.8889C78.0669 73.3413 78.0669 73.7936 78.0041 74.2459L78.0848 73.7128C78.022 74.1409 77.8965 74.5529 77.7171 74.9567L77.9413 74.4721L77.9144 74.5367L82.094 75.5544C82.0761 74.2136 82.0581 72.8728 82.0492 71.5239C82.0492 70.9989 81.807 70.4658 81.3944 70.0942C81.0087 69.7469 80.363 69.4804 79.8069 69.5046C79.2508 69.5288 78.623 69.6984 78.2194 70.0942C77.8157 70.49 77.5556 70.9746 77.5646 71.5239V71.5077Z" fill="#A3CEF1"/>
<path d="M80.8832 78.6481L81.1433 74.981C81.1792 74.4883 80.8653 73.8987 80.4886 73.5514C80.1119 73.204 79.4571 72.9375 78.901 72.9617C78.345 72.986 77.7171 73.1556 77.3135 73.5514C76.9099 73.9472 76.6947 74.4237 76.6588 74.981L76.3987 78.6481C76.3628 79.1408 76.6767 79.7305 77.0534 80.0778C77.4301 80.4251 78.0849 80.6917 78.6409 80.6674C79.197 80.6432 79.8249 80.4736 80.2285 80.0778C80.6321 79.682 80.8473 79.2054 80.8832 78.6481Z" fill="#A3CEF1"/>
<path d="M81.1881 75.8452C81.1433 75.6029 81.1343 75.5786 81.1702 75.7725C81.1522 75.6352 81.1433 75.4979 81.1343 75.3686C81.1253 75.1344 81.1343 74.8921 81.1433 74.6578C81.1433 74.5528 81.1612 74.4559 81.1702 74.3509C81.1343 74.5528 81.1433 74.5286 81.1881 74.2782C81.2509 74.0117 81.3137 73.737 81.3944 73.4705C81.7083 72.4204 81.9326 72.0004 82.4886 71.0635C83.5649 69.238 84.8924 67.5499 85.7982 65.6436L81.6186 64.6259C81.6545 64.1978 81.5379 64.8602 81.4841 64.9732C81.6635 64.5774 81.2778 65.2398 81.233 65.3044C81.1881 65.3609 80.7128 65.9587 80.9639 65.6598C80.8383 65.8133 80.7038 65.9587 80.5782 66.104C79.8069 67.0006 79.1163 67.9133 78.5961 68.9553C77.5736 71.0069 77.0265 73.1959 77.1251 75.4575L81.5289 74.9244C81.4751 74.7063 81.4213 74.4801 81.3854 74.2621C81.4213 74.5044 81.3585 73.8663 81.3585 73.7855C81.3406 73.2928 81.3585 72.8081 81.4213 72.3235C81.5469 71.2735 80.3002 70.2557 79.179 70.3042C77.8606 70.3607 77.0713 71.1927 76.9368 72.3235C76.7933 73.5593 76.9099 74.7871 77.1969 75.9987C77.7261 78.2199 81.6994 77.7353 81.6007 75.4656C81.5738 74.9405 81.5828 74.4155 81.6366 73.8824C81.6455 73.7532 81.6635 73.624 81.6814 73.4866C81.6455 73.6966 81.6545 73.6805 81.6994 73.4382C81.7442 73.2443 81.7801 73.0505 81.8249 72.8566C81.9505 72.3397 82.1119 71.8308 82.3182 71.3381C82.372 71.2169 82.4169 71.0877 82.4707 70.9665C82.381 71.1442 82.3989 71.12 82.5066 70.9019C82.6142 70.6919 82.7308 70.49 82.8474 70.28C83.1075 69.8438 83.3945 69.4238 83.7084 69.0199C83.7892 68.9149 83.8788 68.8018 83.9685 68.6968C83.834 68.8584 83.843 68.8422 84.0044 68.6564C84.2286 68.398 84.4618 68.1314 84.6771 67.873C85.4933 66.8956 86.0045 65.8456 86.1032 64.6178C86.166 63.7778 85.3587 62.857 84.4529 62.6712C83.547 62.4854 82.3182 62.7681 81.9236 63.6001C80.928 65.7002 79.4122 67.5337 78.3001 69.5773C77.0354 71.8954 76.3448 74.3347 76.874 76.9114C77.0892 77.9533 78.5512 78.6399 79.6365 78.3249C80.8742 77.9614 81.4303 76.9598 81.2061 75.8371L81.1881 75.8452Z" fill="#A3CEF1"/>
<path d="M81.0267 76.0552C79.8518 73.0828 81.7084 70.2073 83.7623 67.9537C86.3185 65.1509 89.054 62.4693 91.6999 59.7473C92.4982 58.9234 92.5968 57.6956 91.6999 56.8879C90.8837 56.1529 89.3321 56.064 88.5249 56.8879C85.5202 59.9734 82.3452 62.9862 79.5737 66.2494C76.9817 69.3026 75.1789 73.3089 76.6857 77.1295C77.0893 78.1553 78.2194 78.8418 79.4482 78.543C80.5514 78.2684 81.4214 77.0891 81.0177 76.0552H81.0267Z" fill="#A3CEF1"/>
<path d="M84.7489 78.4461C85.2242 75.1587 85.5471 71.847 85.7086 68.5353H81.224L82.4169 77.5011C82.5515 78.543 83.3497 79.5769 84.6592 79.5204C85.9687 79.4638 86.8297 78.6319 86.9015 77.5011C87.0091 75.8533 87.1705 74.2056 87.3858 72.5578C87.4127 72.3397 87.4396 72.1297 87.4755 71.9116C87.4755 71.8632 87.5562 71.3543 87.5293 71.5401C87.5024 71.7258 87.5831 71.217 87.5921 71.1685C87.628 70.9585 87.6638 70.7404 87.6997 70.5304C87.8432 69.6742 88.0047 68.8261 88.1751 67.978L84.8834 69.1815C85.2422 69.3754 84.6951 69.0846 84.6861 68.9634C84.6861 69.0119 84.8206 69.1815 84.8565 69.2219C84.7579 68.9957 84.7399 68.9553 84.8027 69.1007C84.8296 69.1734 84.8655 69.2542 84.8834 69.3269C84.9283 69.4561 84.9641 69.5854 84.9911 69.7146C85.1704 70.4012 85.296 71.1039 85.4395 71.7985C85.7534 73.2847 86.0763 74.771 86.3902 76.2572C86.5965 77.2426 87.8253 77.8242 88.8478 77.703C89.942 77.5738 90.7851 76.7337 90.7941 75.716C90.812 73.2363 90.3635 70.7485 89.4487 68.4061C89.072 67.453 88.1392 66.823 86.9912 66.9603C85.8431 67.0976 85.1794 67.9295 85.0449 68.9473C84.6771 71.6531 84.8027 74.3509 85.287 77.0407C85.4664 78.0261 86.749 78.6076 87.7446 78.4865C88.8657 78.3492 89.646 77.5172 89.6909 76.4995C89.7805 74.2379 89.8075 71.9762 89.7626 69.7146H85.2781C85.4126 71.3139 85.5382 72.9213 85.6727 74.5206C85.7445 75.401 85.7086 76.3783 85.9328 77.2426C86.2736 78.5269 87.619 79.4315 89.0989 79.0438C90.0765 78.7853 90.7044 77.9938 90.7492 77.0972C90.8479 74.7225 90.9465 72.3397 91.0452 69.965H86.5606C86.7849 72.6224 87.0181 75.2798 87.2423 77.9292C87.332 78.9388 88.0316 79.7708 89.1886 79.9162C90.3456 80.0615 91.2515 79.4234 91.6461 78.4703C92.6776 75.9987 92.5879 73.2928 92.4444 70.7C92.3816 69.65 91.4578 68.6323 90.2021 68.6807C89.0361 68.7292 87.897 69.5692 87.9598 70.7C88.0316 71.8955 88.0944 73.0909 88.0316 74.2782C88.0136 74.5448 87.9957 74.8033 87.9688 75.0698C87.9688 75.0537 87.8881 75.611 87.9329 75.3848C87.9688 75.1829 87.897 75.5625 87.8881 75.6029C87.7625 76.2168 87.5741 76.8145 87.332 77.3961L91.7358 77.9292C91.5116 75.2717 91.2784 72.6143 91.0541 69.965C90.9645 68.915 90.0855 67.8972 88.8119 67.9457C87.5383 67.9942 86.6145 68.8342 86.5696 69.965C86.4709 72.3397 86.3723 74.7225 86.2736 77.0972L87.9239 75.1506L87.8073 75.1829L89.5384 75.3848C90.1572 76.6206 90.4173 76.9114 90.3187 76.2733L90.2828 75.8372L90.2111 74.9648L90.0676 73.2201C89.9689 72.057 89.8792 70.8858 89.7805 69.7227C89.6908 68.6726 88.8119 67.6549 87.5383 67.7034C86.3364 67.7518 85.2781 68.5919 85.296 69.7227C85.3408 71.9843 85.3139 74.2459 85.2242 76.5076L89.6281 75.9745C89.6012 75.8372 89.5832 75.6998 89.5563 75.5545C89.4487 74.8921 89.5653 75.7402 89.5294 75.3606C89.5025 75.0779 89.4577 74.8033 89.4307 74.5206C89.368 73.8905 89.3321 73.2605 89.3231 72.6305C89.3052 71.4027 89.3859 70.175 89.5473 68.9553L85.1435 69.4884C85.5561 70.5466 85.879 71.6208 86.0853 72.7193C86.1122 72.8486 86.1301 72.9859 86.157 73.1232C86.2288 73.4544 86.1301 72.8486 86.166 73.1878C86.1929 73.4544 86.2288 73.729 86.2557 73.9955C86.3095 74.569 86.3274 75.1425 86.3185 75.716L90.7223 75.1829C90.3635 73.4867 89.9958 71.7905 89.637 70.0942C89.2783 68.398 88.9285 66.6776 87.1436 65.7002C85.9866 65.0702 84.1121 65.6195 83.852 66.9037C83.1434 70.4012 82.6591 73.9471 82.4259 77.5011H86.9104L85.7175 68.5353C85.583 67.4934 84.7848 66.4595 83.4753 66.516C82.1658 66.5726 81.2868 67.4045 81.233 68.5353C81.0716 71.8551 80.7487 75.1587 80.2733 78.4461C80.1208 79.4961 81.4124 80.5139 82.5156 80.4654C83.8609 80.4089 84.5964 79.5769 84.7579 78.4461H84.7489Z" fill="#A3CEF1"/>
<path d="M89.5025 82.7271C92.238 81.4024 94.3458 78.8823 94.9198 76.128C95.0364 75.5868 95.0095 75.0618 94.6956 74.5691C94.4265 74.149 93.8883 73.7533 93.3592 73.6402C92.7851 73.519 92.1394 73.5513 91.6281 73.8421C91.1617 74.1167 90.7043 74.5367 90.5967 75.0456C90.4891 75.5545 90.3097 76.0957 90.0765 76.5964L90.3007 76.1118C90.0047 76.7338 89.6191 77.3234 89.1616 77.8646L89.5114 77.4526C89.063 77.9696 88.5607 78.43 87.9867 78.8338L88.4441 78.5188C88.0584 78.7854 87.6638 79.0196 87.2333 79.2296C86.2018 79.7304 85.7893 81.0955 86.4261 81.992C87.1077 82.9371 88.3903 83.2521 89.4935 82.719L89.5025 82.7271Z" fill="#A3CEF1"/>
<path d="M90.4173 69.6743C90.1752 71.6532 89.933 73.6402 89.6819 75.6191C89.6729 75.708 89.655 75.8049 89.646 75.8937C89.6819 75.6595 89.6819 75.6676 89.646 75.9099C89.6101 76.1199 89.5653 76.3299 89.5204 76.548C89.4756 76.7661 89.4128 76.968 89.341 77.1699C89.3052 77.283 89.2603 77.4042 89.2065 77.5173C89.3052 77.3234 89.3141 77.2911 89.2514 77.4203C89.1527 77.5738 89.054 77.7353 88.9554 77.8969C88.7581 78.2361 89.2065 77.6788 88.8298 78.0423C88.7222 78.1473 88.2558 78.4219 88.7042 78.1796C88.5787 78.2442 87.9419 78.4946 88.48 78.3169C87.3768 78.6723 86.5248 79.7062 86.9104 80.8047C87.2602 81.782 88.489 82.5978 89.6729 82.2182C92.256 81.3782 93.6103 79.27 93.996 76.9034C94.3817 74.5367 94.6238 72.0893 94.9198 69.6904C95.0543 68.6404 93.7987 67.6226 92.6775 67.6711C91.3501 67.7276 90.5788 68.5596 90.4353 69.6904L90.4173 69.6743Z" fill="#A3CEF1"/>
<path d="M90.1393 70.9182C90.2379 71.7582 90.3366 72.6063 90.3725 73.4544C90.3904 73.8744 90.3994 74.3025 90.3725 74.7226C90.3635 74.9649 90.3366 75.2072 90.3186 75.4414C90.2828 75.9261 90.3904 75.1103 90.2828 75.6353C90.211 75.9826 90.1213 76.3218 90.0137 76.653C89.9599 76.8226 89.8881 76.9842 89.8254 77.1457C89.6729 77.5334 90.0137 76.8065 89.7536 77.275C89.5832 77.59 89.3769 77.8727 89.1616 78.1634C89.063 78.2846 89.0989 78.2442 89.2603 78.0423C89.1885 78.115 89.1168 78.1958 89.045 78.2604C88.8926 78.4058 88.7401 78.5431 88.5697 78.6723L91.7447 81.5317C92.6865 80.5785 93.3412 79.5689 93.8794 78.3896C94.2381 77.6061 93.6462 76.4915 92.8479 76.1118C92.0497 75.7322 90.7581 75.7161 90.1303 76.4268C89.5563 77.073 88.9912 77.7192 88.4172 78.3735C88.0315 78.8096 87.7625 79.2216 87.7625 79.8031C87.7625 80.2958 88.0046 80.8936 88.4172 81.2328C89.3859 82.0324 90.6146 81.9436 91.5923 81.2328C92.1663 80.8128 92.7313 80.4008 93.3054 79.9808L90.1303 77.1215C89.8074 77.4527 89.4576 77.7434 89.0989 78.0342C88.9015 78.1796 88.9105 78.1715 89.1258 78.0261C89.0271 78.0908 88.9284 78.1554 88.8298 78.22C88.6325 78.3411 88.4262 78.4623 88.2199 78.5754C87.2153 79.1246 86.749 80.4089 87.4127 81.3378C88.0764 82.2667 89.4038 82.6463 90.4801 82.0648C91.5564 81.4832 92.4892 80.7966 93.2874 79.9808C94.0857 79.165 94.2202 77.8969 93.2874 77.1215C92.3546 76.3461 91.09 76.4107 90.1124 77.1215C89.5383 77.5415 88.9733 77.9534 88.3993 78.3735L91.5743 81.2328C92.1483 80.5866 92.7134 79.9404 93.2874 79.2862L89.5383 77.3234C89.7626 76.8307 89.4486 77.4607 89.4038 77.5496C89.3051 77.7111 89.2065 77.8727 89.0989 78.0261C89.0002 78.1635 88.8926 78.3735 88.758 78.4785C89.1706 78.1473 88.6414 78.5915 88.5607 78.6804C87.7804 79.472 87.6279 80.7643 88.5607 81.5397C89.4935 82.3151 90.794 82.2909 91.7358 81.5397C95.0992 78.8581 95.0364 74.6095 94.6059 70.9262C94.4803 69.8762 93.6641 68.8585 92.3636 68.9069C91.2514 68.9554 89.9868 69.8035 90.1213 70.9262L90.1393 70.9182Z" fill="#A3CEF1"/>
<path d="M84.4708 76.4833C84.408 76.8468 84.3363 77.2264 84.3452 77.598C84.3542 77.9695 84.417 78.333 84.4887 78.6884C84.5246 78.8822 84.5874 79.0761 84.6592 79.2619C84.8027 79.6011 84.9551 79.9484 85.1614 80.2715C85.3049 80.5058 85.4933 80.6996 85.7354 80.8369C85.9507 81.0146 86.2018 81.1358 86.4978 81.2004C86.7938 81.2812 87.0898 81.2973 87.3947 81.2327C87.6907 81.2166 87.9688 81.1439 88.2289 80.9904C88.7042 80.7158 89.1258 80.2958 89.2603 79.7869C89.3948 79.278 89.341 78.7126 89.0361 78.228C88.9554 78.1068 88.8836 77.9776 88.8298 77.8484L89.054 78.333C88.9195 78.0503 88.8298 77.7514 88.7849 77.4445L88.8657 77.9776C88.8208 77.6868 88.8208 77.388 88.8657 77.0891L88.7849 77.6222C88.7849 77.6222 88.7849 77.5737 88.7939 77.5495C88.8836 77.283 88.9015 77.0164 88.8298 76.7418C88.8118 76.4752 88.7311 76.2248 88.5607 75.9906C88.4172 75.7564 88.2289 75.5625 87.9867 75.4252C87.7714 75.2475 87.5203 75.1263 87.2243 75.0617L86.6324 74.989C86.2287 74.989 85.8521 75.0859 85.5023 75.2636L85.0448 75.5787C84.7668 75.829 84.5784 76.1279 84.4708 76.4671V76.4833Z" fill="#A3CEF1"/>
<path d="M91.099 82.8159C95.2606 78.325 95.9154 72.4044 95.5118 66.7746C95.431 65.6841 94.5341 64.7552 93.2695 64.7552C92.1125 64.7552 90.9465 65.6841 91.0272 66.7746C91.1169 68.0104 91.1618 69.2543 91.1259 70.4901C91.1079 71.112 91.0721 71.734 91.0093 72.3559C90.9375 73.0425 90.9106 73.2606 90.7851 73.8825C90.5429 75.0699 90.211 76.2653 89.6729 77.38C89.7357 77.2427 89.7088 77.2911 89.6011 77.5173C89.5294 77.6546 89.4576 77.7919 89.3859 77.9211C89.2334 78.1877 89.072 78.4542 88.9015 78.7127C88.5966 79.1731 88.193 79.682 87.9329 79.9647C87.1615 80.8047 87.027 82.0002 87.9329 82.824C88.7311 83.5429 90.3276 83.6641 91.1079 82.824L91.099 82.8159Z" fill="#A3CEF1"/>
<path d="M81.3496 9.8865C83.7623 9.22416 86.0942 9.43417 88.6146 9.66841C91.2694 9.91073 93.9153 10.153 96.5701 10.3954C97.781 10.5084 98.8124 9.38571 98.8124 8.37605C98.8124 7.1887 97.781 6.46983 96.5701 6.35675C93.8166 6.10635 91.0631 5.85596 88.3096 5.59748C85.5561 5.33901 82.8743 5.25016 80.1567 5.99327C78.9997 6.30828 78.2642 7.40679 78.5871 8.48106C78.91 9.55533 80.1836 10.2096 81.3496 9.89457V9.8865Z" fill="#A3CEF1"/>
<path d="M80.7307 9.5311C83.9775 9.3534 87.2243 9.18377 90.4621 9.00607C91.6281 8.94146 92.7582 8.12566 92.7044 6.98677C92.6506 5.9448 91.7178 4.90284 90.4621 4.96746C87.2153 5.14516 83.9685 5.31478 80.7307 5.49248C79.5647 5.5571 78.4346 6.3729 78.4884 7.51179C78.5422 8.55375 79.475 9.59571 80.7307 9.5311Z" fill="#A3CEF1"/>
<path d="M82.9999 8.02873C85.8879 8.02873 85.8879 3.99011 82.9999 3.99011C80.1119 3.99011 80.1119 8.02873 82.9999 8.02873Z" fill="#A3CEF1"/>
<path d="M109.504 8.02873C112.392 8.02873 112.392 3.99011 109.504 3.99011C106.616 3.99011 106.616 8.02873 109.504 8.02873Z" fill="#A3CEF1"/>
<path d="M80.7307 9.66042C84.0852 9.67658 87.4396 9.69273 90.7851 9.71696C91.8883 9.71696 92.8569 8.94155 92.9915 7.9642C93.1081 7.07571 92.5071 5.88836 91.386 5.75104C86.0763 5.09679 80.7487 4.74946 75.3852 4.79793C74.282 4.80601 73.3133 5.55719 73.1788 6.55069C73.0532 7.48765 73.6721 8.56192 74.7842 8.76385C79.1163 9.57157 83.556 9.88659 87.9777 9.62812C89.1886 9.55542 90.22 8.7477 90.22 7.60881C90.22 6.56684 89.1886 5.5168 87.9777 5.5895C83.9417 5.82374 79.9145 5.60565 75.9771 4.87062L75.3852 8.83655C80.3271 8.79616 85.296 9.03848 90.1931 9.64427L90.7851 5.67835C87.4306 5.66219 84.0762 5.64604 80.7307 5.62181C79.5199 5.62181 78.4885 6.55069 78.4885 7.64111C78.4885 8.73154 79.5109 9.65235 80.7307 9.66042Z" fill="#A3CEF1"/>
</g>
<defs>
<clipPath id="clip0_466_3684">
<rect width="170" height="169" fill="white"/>
</clipPath>
</defs>
</svg>
