<svg width="100" height="100" viewBox="0 0 100 100" fill="none" xmlns="http://www.w3.org/2000/svg">
<g clip-path="url(#clip0_349_907)">
<path d="M16.2919 95.4261C17.1901 95.4742 17.7059 95.5255 18.2245 95.5287C29.3272 95.5351 40.43 95.5351 51.5327 95.5383C51.8224 95.5383 52.1122 95.5191 52.4019 95.5383C53.7811 95.6377 54.5865 96.5608 54.5721 97.9647C54.5576 99.532 53.6652 99.9519 52.4715 99.9519C47.4996 99.9519 42.5248 99.9263 37.5529 99.9295C28.0408 99.9359 18.5287 99.9519 9.01954 99.9679C5.11098 99.9744 2.27734 98.0448 0.675096 94.1056C0.272361 93.1184 0.115903 91.9517 0.0695451 90.8523C-0.0260682 88.615 -0.0115814 86.3681 0.0405714 84.1245C0.0869294 82.1789 0.675096 81.5635 2.44539 81.5411C5.43838 81.5026 8.43137 81.5186 11.4244 81.5122C13.5221 81.5058 13.5307 81.5058 13.5307 79.2205C13.5307 56.2582 13.5568 33.2959 13.5134 10.3305C13.5047 5.97455 15.1533 2.80137 18.6446 0.980802C19.9397 0.304498 21.5304 0.0833369 22.9878 0.0641055C26.9282 0.0128218 30.8715 0.256419 34.8149 0.243598C44.1212 0.211546 53.4276 0.0801317 62.734 0.0256428C68.8648 -0.00961477 74.9928 -0.01282 81.1236 0.0320532C84.1021 0.0512846 86.7097 1.07055 88.5119 3.90718C91.8033 9.08362 89.8708 15.9909 84.4266 17.9301C82.7374 18.5326 80.8455 18.5262 79.0404 18.6128C76.3458 18.741 76.6008 18.3724 76.595 21.2763C76.5834 26.1899 76.6037 31.1036 76.5776 36.014C76.5689 37.7384 75.6331 38.6134 74.1873 38.3698C72.8632 38.1455 72.6662 37.0749 72.6633 35.8794C72.6546 31.3407 72.6778 26.8021 72.6488 22.2603C72.6227 18.2089 73.1355 18.648 69.4443 18.6416C56.3597 18.6288 43.2752 18.6352 30.1907 18.6352C27.4816 18.6352 26.9369 18.0455 26.9369 15.0966C26.9369 13.4427 26.9688 11.7856 26.9601 10.1317C26.9427 6.91689 24.9841 4.60592 22.3069 4.60912C19.4993 4.61233 17.4567 6.88163 17.4509 10.1189C17.4335 22.6674 17.4422 35.2191 17.4422 47.7676C17.4422 60.6366 17.4567 73.5088 17.4335 86.3778C17.4277 89.333 17.8073 92.3491 16.2861 95.4261H16.2919Z" fill="#A3CEF1"/>
<path d="M74.4857 43.7578C88.3728 43.4309 99.8725 55.9794 100 71.5664C100.13 87.3041 88.8277 99.9167 74.7146 100.003C60.3523 100.09 49.5885 87.397 49.1279 72.8645C48.6179 56.6909 60.5232 43.4501 74.4857 43.7578ZM74.5639 48.8317C63.0092 48.508 53.6507 59.5276 53.6652 71.7812C53.6796 84.2527 62.7716 94.9902 74.4335 94.9518C86.3852 94.9133 95.1932 84.9899 95.483 72.0568C95.7611 59.6846 86.4287 48.5657 74.5639 48.8317Z" fill="#A3CEF1"/>
<path d="M24.6653 61.4731C24.7899 58.957 26.3313 56.2582 29.2924 54.4601C29.8661 54.1107 30.3326 53.3318 30.6021 52.6331C31.0598 51.4568 31.6741 50.5465 32.8736 50.5337C34.1166 50.5176 34.8641 51.2709 35.2321 52.6587C35.4088 53.3254 35.9245 54.0915 36.4721 54.3896C38.5293 55.5114 39.8794 57.2839 40.8008 59.5243C41.3137 60.768 40.8414 62.268 39.807 62.8386C38.622 63.4924 37.182 63.0373 36.533 61.8449C36.1389 61.1206 35.7826 60.316 35.2292 59.7679C33.7225 58.2743 31.6654 58.473 30.3326 60.1205C28.9042 61.8834 28.9824 64.0822 30.6774 65.6079C31.3409 66.2041 32.2594 66.7586 33.0764 66.7874C38.1758 66.9637 41.9714 71.1113 42.038 76.7461C42.093 81.3808 39.9374 84.4066 36.3533 86.4611C35.8579 86.7432 35.3827 87.4035 35.2263 87.9964C34.8728 89.3234 34.1919 89.9548 32.9576 89.974C31.7146 89.9933 30.8454 89.3554 30.689 88.0381C30.5673 87.0092 30.1037 86.647 29.3446 86.272C26.963 85.0925 25.268 83.1661 24.335 80.4192C23.8077 78.8679 24.083 77.4448 25.2013 76.8037C26.4414 76.089 27.8872 76.6659 28.5855 78.1532C29.9386 81.0347 31.2221 81.9642 33.4849 81.6981C35.2726 81.4898 36.9676 79.8519 37.2515 78.0602C37.6282 75.6819 36.5764 73.2011 34.7279 72.3453C34.0296 72.0215 33.2474 71.8324 32.4911 71.7779C27.8467 71.451 24.6393 67.7522 24.6653 61.4795V61.4731Z" fill="#A3CEF1"/>
<path d="M45.1556 25.6643C50.8953 25.6643 56.635 25.6643 62.3747 25.6675C62.9049 25.6675 63.4351 25.6739 63.9653 25.7092C65.1967 25.7925 66.1239 26.3053 66.2398 27.8374C66.347 29.2638 65.5589 30.3567 64.1942 30.658C63.8205 30.7414 63.4264 30.7157 63.0411 30.7157C50.9851 30.7157 38.9291 30.7221 26.8731 30.7157C24.9551 30.7157 23.97 29.8824 23.8917 28.2766C23.8222 26.8887 24.3959 26.004 25.6302 25.7861C26.3864 25.6515 27.1658 25.6707 27.9365 25.6675C33.6762 25.6579 39.4159 25.6643 45.1556 25.6675V25.6643Z" fill="#A3CEF1"/>
<path d="M35.7014 38.0846C38.7379 38.0846 41.7772 38.0717 44.8137 38.091C46.471 38.1038 47.6676 39.1775 47.6299 40.5494C47.5923 41.8988 46.2855 43.104 44.7847 43.1072C38.7089 43.1136 32.636 43.1104 26.5602 43.0943C24.8073 43.0879 23.9004 42.184 23.8801 40.5141C23.8599 38.8186 24.6479 38.0942 26.5892 38.0846C29.6256 38.0685 32.6621 38.0814 35.6985 38.0846H35.7014Z" fill="#A3CEF1"/>
<path d="M76.7486 60.3737C76.7486 61.3866 76.9079 62.4379 76.7167 63.4059C76.1807 66.1239 77.6207 67.89 79.0027 69.701C79.194 69.951 79.5793 70.0503 79.8951 70.1465C81.8364 70.733 83.7805 71.3132 85.7333 71.8645C87.7644 72.4382 88.6481 73.5536 88.5177 75.4576C88.4018 77.1691 86.8923 78.4993 85.3741 78.0955C83.2764 77.5409 81.2134 76.8037 79.1099 76.2845C78.4349 76.1178 77.6033 76.2076 76.9601 76.4993C74.7378 77.5057 72.1939 77.3166 70.6438 74.871C69.2473 72.6658 69.5747 70.0087 71.3421 67.9028C71.8317 67.3195 72.1562 66.3515 72.1823 65.547C72.2779 62.2969 72.2142 59.0436 72.2345 55.7935C72.2374 55.2165 72.249 54.5915 72.4431 54.0722C72.8806 52.9087 73.6774 52.0369 74.8856 52.303C75.9895 52.5466 76.7486 53.3543 76.7312 54.7774C76.7109 56.6428 76.7254 58.5083 76.7254 60.3737C76.7341 60.3737 76.7399 60.3737 76.7486 60.3737Z" fill="#A3CEF1"/>
</g>
<defs>
<clipPath id="clip0_349_907">
<rect width="100" height="100" fill="#A3CEF1"/>
</clipPath>
</defs>
</svg>
