<svg width="155" height="155" viewBox="0 0 155 155" fill="none" xmlns="http://www.w3.org/2000/svg">
<g clip-path="url(#clip0_249_405)">
<path d="M17.9261 112.477C18.7861 109.941 19.4886 107.998 20.0821 106.019C20.2577 105.444 20.3485 104.681 20.1184 104.167C16.6725 96.4248 19.7853 91.3766 28.3063 90.9589C28.6091 90.9468 28.9058 90.8863 29.6871 90.7834C29.6871 89.6817 29.6871 88.5256 29.6871 87.3755C29.6871 63.6719 29.6871 39.9743 29.6871 16.2706C29.6931 5.69593 35.3677 0.0302927 45.9356 0.0302927C62.5838 0.0302927 79.2381 0.0726639 95.8864 2.75655e-05C100.628 -0.0181315 104.492 1.61619 107.708 5.06642C111.905 9.56987 116.174 14.0007 120.408 18.4618C123.314 21.5307 124.762 25.1443 124.726 29.3996C124.671 36.3545 124.713 43.3034 124.713 50.7123C127.966 50.7123 131.066 50.8758 134.149 50.6821C146.406 49.9254 155.151 59.5558 155 71.3834C154.734 92.3572 154.933 113.337 154.921 134.317C154.915 147.113 146.976 154.994 134.137 154.994C120.819 154.994 107.496 154.994 94.1785 154.994C81.9937 154.994 74.5325 148.196 73.4303 136.109C73.3879 135.624 73.3274 135.146 73.2607 134.547H70.8141C69.9057 135.219 68.7187 140.285 69.2274 141.254C72.425 147.361 68.7066 153.711 61.7905 153.747C48.2672 153.82 34.75 153.783 21.2267 153.771C10.0532 153.759 1.45349 146.048 0.139316 134.898C-1.03557 124.953 6.05613 115.28 16.3636 112.786C17.0359 112.623 17.7141 112.514 17.9382 112.471L17.9261 112.477ZM99.3686 4.89088C97.9273 4.89088 96.928 4.89088 95.9348 4.89088C79.2926 4.89088 62.6444 4.89088 46.0022 4.89088C38.1111 4.89088 34.6107 8.41374 34.6107 16.3674C34.6046 40.059 34.6107 63.7566 34.6107 87.4482C34.6107 88.5256 34.6107 89.597 34.6107 90.9771C36.0944 90.9771 37.1845 90.9771 38.2746 90.9771C45.9417 90.9771 53.6087 90.9892 61.2757 90.9771C64.8852 90.9771 67.7921 92.2422 69.512 95.5532C71.2925 98.9853 68.5975 102.284 68.858 105.19C69.1426 108.398 71.1108 111.473 69.3848 114.893C69.294 115.068 69.0699 115.219 69.0578 115.395C69.0094 116.188 68.7126 117.156 69.0578 117.75C70.8686 120.952 70.9049 124.051 68.9246 127.156C67.9314 128.712 68.6339 129.402 70.2024 129.505C71.1714 129.571 72.1525 129.438 73.4303 129.384C73.4303 127.997 73.4303 126.817 73.4303 125.631C73.4303 107.278 73.3819 88.9312 73.4485 70.5784C73.4909 58.8234 81.4668 50.8394 93.1672 50.7305C100.931 50.6579 108.701 50.7184 116.471 50.7063C117.543 50.7063 118.609 50.6155 119.832 50.561C119.832 43.0673 119.796 35.9187 119.856 28.764C119.875 26.7968 118.912 26.4336 117.222 26.4578C112.686 26.5305 108.144 26.5002 103.602 26.4699C100.089 26.4457 99.3929 25.7315 99.3807 22.1723C99.3626 16.543 99.3807 10.9076 99.3807 4.88482L99.3686 4.89088ZM150.185 103.041C150.185 92.0485 150.222 81.0562 150.173 70.0639C150.137 61.517 144.129 55.3187 135.56 55.2521C121.334 55.1371 107.108 55.1492 92.8825 55.2521C84.186 55.3126 78.1117 61.5594 78.0996 70.2576C78.0693 91.9395 78.0754 113.621 78.0996 135.303C78.1056 144.129 83.9437 150.236 92.7675 150.321C106.993 150.454 121.219 150.448 135.445 150.327C144.347 150.254 150.149 144.268 150.179 135.418C150.216 124.626 150.185 113.839 150.185 103.047V103.041ZM29.2995 149.116C38.2322 149.068 45.336 141.901 45.336 132.937C45.336 124.202 37.8204 116.775 29.0814 116.884C20.185 116.993 13.0509 124.281 13.1297 133.161C13.2084 142.216 20.2456 149.165 29.2995 149.116ZM44.1672 102.581C49.8176 102.581 55.4679 102.581 61.1183 102.581C63.462 102.581 65.4787 102.048 65.3939 99.1547C65.3151 96.4551 63.3409 95.9587 61.1546 95.9587C50.0598 95.9406 38.959 95.9406 27.8642 95.9587C25.5326 95.9587 23.5098 96.5459 23.5825 99.4211C23.6552 102.127 25.6295 102.581 27.8278 102.581C33.2783 102.581 38.7228 102.581 44.1733 102.581H44.1672ZM23.8126 111.66C28.7665 112.514 33.5569 113.821 38.4079 114.069C46.2505 114.469 54.1295 114.227 61.9964 114.142C64.0312 114.118 65.4726 113.046 65.412 110.752C65.3515 108.446 63.8738 107.593 61.8026 107.593C50.3081 107.568 38.8136 107.538 27.3191 107.611C24.2002 107.629 23.3948 108.834 23.8126 111.66ZM43.1498 148.899C49.648 148.899 55.7465 148.947 61.8389 148.874C64.0373 148.85 65.5029 147.718 65.3878 145.333C65.2788 143.1 63.8072 142.258 61.7178 142.258C57.6057 142.258 53.4876 142.204 49.3755 142.307C48.6306 142.325 47.6979 142.833 47.2013 143.421C45.8569 145.013 44.6941 146.768 43.1437 148.899H43.1498ZM45.009 119.178C46.2384 121.315 47.171 123.064 48.249 124.717C48.57 125.207 49.2846 125.74 49.8236 125.746C53.9357 125.824 58.0539 125.891 62.1599 125.722C64.1766 125.637 65.5453 124.438 65.3999 122.18C65.2667 120.092 63.9586 119.19 61.9843 119.184C56.4732 119.166 50.9622 119.178 45.009 119.178ZM49.866 137.301C54.0992 137.301 58.3082 137.519 62.4627 137.15C63.5346 137.053 65.1637 135.146 65.2122 134.02C65.2546 132.973 63.5952 131.006 62.5596 130.915C58.4172 130.552 54.2264 130.764 49.866 130.764V137.295V137.301ZM104.316 8.70429C104.316 13.0383 104.274 16.4219 104.359 19.7995C104.371 20.3503 104.958 21.343 105.31 21.3551C108.725 21.4701 112.147 21.4278 116.423 21.4278C112.153 16.9425 108.58 13.1835 104.323 8.70429H104.316ZM8.9025 127.985C5.38996 127.332 5.2749 127.428 5.18405 130.951C7.93958 131.853 9.01151 130.673 8.9025 127.985ZM5.15377 136C5.3839 138.554 5.99557 140.327 8.9994 139.183C9.27798 136.357 8.32112 135.061 5.15377 136Z" fill="#134A83"/>
<path d="M60.8215 54.2835C62.2326 54.8041 63.789 55.1068 64.9881 55.936C65.6422 56.39 65.6846 57.7398 65.9995 58.6841C65.0729 58.9625 64.1282 59.5194 63.2137 59.471C61.3424 59.3741 59.4407 58.557 57.6542 58.7991C56.5156 58.9565 54.8926 60.3608 54.7109 61.4201C54.5232 62.5278 55.4982 64.2892 56.5035 65.0337C57.9933 66.1354 59.9858 66.5288 61.7178 67.3278C65.1395 68.9137 66.9503 71.5286 66.9261 75.4147C66.8958 79.1857 65.5756 82.0064 61.954 83.6105C61.2394 83.9252 60.9063 85.0329 60.3128 85.7048C59.6588 86.4433 58.9744 87.5147 58.169 87.6539C57.5815 87.7568 56.1886 86.5946 56.1704 85.9712C56.1159 84.0463 54.832 83.8829 53.5421 83.2655C52.2279 82.6359 50.9137 81.6977 50.0719 80.5477C49.6177 79.9302 50.1567 78.5925 50.2476 77.5817C51.1984 77.7088 52.1916 77.6967 53.0818 77.9993C54.8199 78.5804 56.5217 79.9 58.1992 79.8455C59.6588 79.7971 61.7542 78.5925 62.3537 77.3274C63.3348 75.2634 62.7231 72.8785 60.3855 71.6315C58.7079 70.7357 56.8972 70.0941 55.1409 69.3495C52.0826 68.0542 50.2355 65.8569 50.187 62.443C50.1446 59.1381 51.4588 56.614 54.6261 55.2097C55.1651 54.9675 55.8616 54.3743 55.91 53.878C56.0857 52.2497 56.3703 50.4943 58.3567 50.9302C59.3983 51.1602 60.1372 52.7824 61.0093 53.7751C60.9487 53.9506 60.8881 54.1201 60.8215 54.2956V54.2835Z" fill="#134A83"/>
<path d="M69.8753 35.7735C63.6193 35.7735 57.3634 35.7553 51.1074 35.7856C49.3814 35.7916 47.5949 35.6827 47.5828 33.5096C47.5646 31.2942 49.4238 31.2095 51.1074 31.2095C63.7223 31.2095 76.3372 31.2095 88.946 31.2095C90.6114 31.2095 92.4464 31.2276 92.4404 33.5157C92.4404 35.8098 90.6296 35.7795 88.946 35.7795C82.5871 35.7674 76.2342 35.7795 69.8753 35.7795V35.7735Z" fill="#134A83"/>
<path d="M85.6273 47.1955C79.5833 47.1955 73.5333 47.1834 67.4893 47.2016C65.7572 47.2016 63.9949 46.9776 63.9646 44.859C63.9343 42.7405 65.6724 42.4439 67.4227 42.4499C79.6136 42.462 91.8106 42.456 104.002 42.4499C105.752 42.4499 107.611 42.8071 107.248 44.9075C107.09 45.8215 105.207 47.0442 104.068 47.0865C97.9273 47.2984 91.7803 47.1894 85.6334 47.1894L85.6273 47.1955Z" fill="#134A83"/>
<path d="M53.2574 47.1834C52.246 47.1834 51.1135 47.4739 50.2596 47.1047C49.2179 46.6568 48.4246 45.652 47.5222 44.8832C48.3822 44.0782 49.1574 42.7344 50.1263 42.577C52.2884 42.226 54.5897 42.226 56.7517 42.577C57.7086 42.7344 58.4717 44.0963 59.3256 44.9135C58.4111 45.6701 57.6056 46.6931 56.5579 47.0986C55.595 47.4739 54.3656 47.1773 53.2574 47.1773V47.1834Z" fill="#134A83"/>
<path d="M102.524 35.7552C101.519 35.7552 100.386 36.0458 99.5443 35.6766C98.6116 35.271 97.9394 34.2601 97.1521 33.5096C97.9333 32.759 98.6116 31.5484 99.52 31.3486C101.149 30.9855 102.984 30.931 104.595 31.3184C105.661 31.5726 106.479 32.8316 107.411 33.6427C106.485 34.3509 105.625 35.1863 104.607 35.7129C104.056 35.9974 103.226 35.7613 102.524 35.7613C102.524 35.7613 102.524 35.7552 102.524 35.7492V35.7552Z" fill="#134A83"/>
<path d="M114.503 60.4697C121.358 60.4697 128.214 60.4395 135.069 60.4758C140.665 60.5061 143.633 63.4781 143.705 69.0408C143.736 71.3591 143.766 73.6775 143.693 75.9958C143.548 80.9472 140.411 84.1008 135.475 84.1371C127.711 84.1976 119.947 84.1371 112.183 84.1674C110.397 84.1674 108.586 83.786 108.901 81.734C109.04 80.8261 110.972 79.5671 112.117 79.5368C119.572 79.337 127.039 79.446 134.5 79.4278C138.358 79.4157 138.933 78.8346 138.97 75.0757C138.988 73.3627 138.976 71.6497 138.97 69.9367C138.957 65.7661 138.188 64.9611 134.088 64.949C126.427 64.9308 118.76 64.949 111.099 64.949C105.552 64.949 100.011 64.9248 94.4632 64.9611C90.7811 64.9853 89.8787 65.9417 89.8545 69.6401C89.8424 71.2502 89.8545 72.8664 89.8545 74.4765C89.8666 78.9254 90.3814 79.4278 94.9659 79.44C96.5768 79.44 98.1938 79.44 99.8047 79.44C101.5 79.44 103.281 79.5792 103.335 81.7704C103.384 83.9858 101.664 84.1855 99.9258 84.1613C97.7093 84.1371 95.4867 84.1976 93.2702 84.1432C88.6251 84.0281 85.4941 81.1106 85.2095 76.4619C85.046 73.7501 85.0581 71.0141 85.1913 68.3024C85.4336 63.3873 88.4192 60.5242 93.3307 60.4819C100.386 60.4213 107.448 60.4697 114.503 60.4637V60.4697Z" fill="#134A83"/>
<path d="M143.833 126.769C143.833 130.691 143.887 134.619 143.82 138.542C143.754 142.531 141.198 145.115 137.237 145.285C135.73 145.351 134.209 145.376 132.708 145.267C129.461 145.025 126.766 142.791 126.694 139.577C126.494 130.933 126.627 122.283 126.639 113.64C126.639 113.343 126.718 113.04 126.803 112.75C127.857 109.1 131.545 107.708 138.152 108.458C141.634 108.858 143.76 111.128 143.82 114.705C143.887 118.73 143.839 122.755 143.839 126.775L143.833 126.769ZM131.072 126.569C131.072 130.098 131.218 133.633 131.03 137.15C130.873 140.14 132.356 140.678 134.906 140.642C137.449 140.612 139.49 140.624 139.393 137.107C139.224 130.963 139.345 124.813 139.345 118.664C139.345 112.847 139.345 112.913 133.513 113.137C131.672 113.21 131.018 113.894 131.048 115.679C131.121 119.305 131.072 122.937 131.066 126.563L131.072 126.569Z" fill="#134A83"/>
<path d="M102.603 117.235C102.603 118.343 102.627 119.451 102.603 120.552C102.512 123.948 100.774 125.788 97.4307 125.897C95.1172 125.976 92.8038 125.97 90.4904 125.897C87.317 125.8 85.3911 124.039 85.2094 120.891C85.0641 118.385 85.058 115.855 85.2094 113.355C85.3972 110.383 87.2927 108.591 90.2845 108.446C92.392 108.343 94.5116 108.398 96.6191 108.422C100.883 108.476 102.566 110.195 102.597 114.517C102.603 115.425 102.597 116.327 102.597 117.235H102.603ZM90.0967 113.319V120.982H97.7759V113.319H90.0967Z" fill="#134A83"/>
<path d="M123.163 136.774C123.163 137.882 123.199 138.99 123.151 140.091C123.018 143.275 121.219 145.158 118.088 145.273C115.678 145.364 113.255 145.358 110.845 145.273C107.732 145.17 105.837 143.3 105.697 140.146C105.588 137.737 105.582 135.316 105.703 132.906C105.861 129.795 107.768 127.967 110.936 127.828C113.043 127.731 115.163 127.773 117.277 127.81C121.334 127.882 123.109 129.686 123.163 133.754C123.175 134.759 123.163 135.763 123.163 136.768V136.774ZM118.288 132.767H110.597V140.418H118.288V132.767Z" fill="#134A83"/>
<path d="M114.291 125.915C113.086 125.915 111.874 125.97 110.669 125.897C107.865 125.728 105.903 123.96 105.728 121.182C105.558 118.579 105.57 115.952 105.715 113.343C105.879 110.413 107.823 108.585 110.815 108.452C113.225 108.343 115.647 108.337 118.058 108.452C121.225 108.603 123.03 110.48 123.145 113.634C123.218 115.643 123.169 117.653 123.163 119.668C123.139 124.172 121.461 125.873 117.01 125.915C116.102 125.921 115.199 125.915 114.291 125.915ZM118.221 121.042V113.361H110.572V121.042H118.221Z" fill="#134A83"/>
<path d="M102.596 136.708C102.596 137.912 102.639 139.123 102.584 140.327C102.445 143.342 100.683 145.152 97.6426 145.273C95.2322 145.37 92.8098 145.351 90.3995 145.279C87.2624 145.182 85.3668 143.378 85.1912 140.206C85.058 137.803 85.0519 135.376 85.1912 132.967C85.3789 129.656 87.2624 127.937 90.6659 127.816C92.5736 127.749 94.4873 127.786 96.401 127.804C100.907 127.846 102.566 129.511 102.596 133.99C102.603 134.898 102.596 135.8 102.596 136.708ZM89.9755 140.388H97.8485V132.791H89.9755V140.388Z" fill="#134A83"/>
<path d="M114.303 105.426C113.098 105.426 111.887 105.468 110.681 105.42C107.768 105.292 105.915 103.676 105.727 100.813C105.552 98.2104 105.576 95.5834 105.709 92.9806C105.867 90.0751 107.587 88.3379 110.494 88.1684C113.098 88.0171 115.726 88.0171 118.33 88.1684C121.37 88.344 123.03 90.172 123.139 93.253C123.211 95.2626 123.163 97.2722 123.151 99.2818C123.127 103.84 121.564 105.401 117.004 105.438C116.102 105.444 115.193 105.438 114.291 105.438V105.426H114.303ZM110.536 100.722H118.233V92.8656H110.536V100.722Z" fill="#134A83"/>
<path d="M93.8878 105.432C92.6826 105.432 91.4775 105.468 90.2723 105.42C87.323 105.305 85.4577 103.767 85.2457 100.898C85.0398 98.2043 85.0398 95.4684 85.2457 92.7687C85.4516 90.0327 87.0686 88.3016 89.9029 88.1684C92.61 88.0413 95.3352 88.005 98.0362 88.1805C100.925 88.3682 102.506 90.1962 102.596 93.144C102.657 95.2505 102.621 97.363 102.609 99.4694C102.584 103.846 101.028 105.383 96.607 105.426C95.7046 105.432 94.7962 105.426 93.8939 105.426L93.8878 105.432ZM90.1027 92.7808V100.946C92.2466 100.946 94.1543 101.061 96.0377 100.886C96.71 100.819 97.8243 100.093 97.8667 99.5905C98.0665 97.3569 97.9515 95.0931 97.9515 92.7808H90.0967H90.1027Z" fill="#134A83"/>
<path d="M135.039 105.426C133.828 105.426 132.617 105.474 131.405 105.414C128.474 105.274 126.73 103.682 126.554 100.716C126.403 98.1015 126.403 95.4685 126.554 92.8596C126.724 89.9057 128.402 88.3077 131.424 88.1504C133.937 88.0232 136.468 88.0172 138.988 88.1504C142.113 88.3198 143.73 90.0631 143.82 93.1744C143.881 95.2929 143.851 97.4115 143.833 99.524C143.802 103.816 142.27 105.377 138.067 105.426C137.056 105.438 136.05 105.426 135.039 105.426ZM131.212 100.928C133.519 100.928 135.705 101.025 137.873 100.862C138.388 100.825 139.224 99.9538 139.26 99.4211C139.418 97.2602 139.327 95.0811 139.327 92.902H131.212V100.934V100.928Z" fill="#134A83"/>
<path d="M28.0701 129.087C29.36 129.722 30.65 130.346 31.9339 130.994C36.5123 133.288 36.6758 138.59 33.1754 142.24C30.2563 145.291 28.385 146.035 25.8354 142.313C25.3509 141.611 24.1336 141.308 23.855 140.588C23.5159 139.71 23.4311 138.288 23.9398 137.664C24.3819 137.125 25.8051 137.246 26.768 137.343C27.2888 137.392 27.7491 138.269 28.2457 138.281C29.1359 138.3 30.0383 137.943 30.9346 137.749C30.6076 136.907 30.5107 135.782 29.9051 135.285C29.0088 134.553 27.6946 134.347 26.6408 133.772C23.1162 131.853 22.5287 127.307 25.4659 124.626C26.8467 123.367 28.2639 121.381 29.7779 121.266C31.1466 121.163 32.8059 123.034 34.0717 124.293C34.7015 124.922 35.2405 126.375 34.9256 127.023C34.5925 127.707 33.2178 128.143 32.2609 128.209C31.0073 128.294 29.7173 127.907 28.4456 127.725C28.3244 128.179 28.1972 128.633 28.0761 129.093L28.0701 129.087Z" fill="#134A83"/>
</g>
<defs>
<clipPath id="clip0_249_405">
<rect width="155" height="155" fill="white"/>
</clipPath>
</defs>
</svg>
