<?xml version="1.0" encoding="utf-8"?>
<!-- Generator: Adobe Illustrator 28.3.0, SVG Export Plug-In . SVG Version: 6.00 Build 0)  -->
<svg version="1.1" id="Capa_1" xmlns="http://www.w3.org/2000/svg" xmlns:xlink="http://www.w3.org/1999/xlink" x="0px" y="0px"
	 viewBox="0 0 1609 4086" style="enable-background:new 0 0 1609 4086;" xml:space="preserve">
<style type="text/css">
	.st0{fill:#D9D9D9;}
	.st1{fill:none;stroke:#000000;}
	.st2{fill:#FFFFFF;}
</style>
<g>
	<g>
		<path class="st0" d="M1.5,4080.4l1483.1,0.7l121,0.1l1.9-4076l-580.9-0.3C742.4,71.2,542,294.2,850.4,1059.8
			s-164.3,764.8-309.3,1085.4c-158.2,349.9-30.3,440,175.3,916.6C880.9,3443,308.4,3899.7,1.5,4080.4z"/>
		<path class="st1" d="M1.5,4080.4l1483.1,0.7l121,0.1l1.9-4076l-580.9-0.3C742.4,71.2,542,294.2,850.4,1059.8
			s-164.3,764.8-309.3,1085.4c-158.2,349.9-30.3,440,175.3,916.6C880.9,3443,308.4,3899.7,1.5,4080.4z"/>
		<path class="st0" d="M1.5,4080.4l1483.1,0.7l121,0.1l1.9-4076l-580.9-0.3C742.4,71.2,542,294.2,850.4,1059.8
			s-164.3,764.8-309.3,1085.4c-158.2,349.9-30.3,440,175.3,916.6C880.9,3443,308.4,3899.7,1.5,4080.4z"/>
		<path class="st2" d="M1.5,4080.4l1483.1,0.7l121,0.1l1.9-4076l-580.9-0.3C742.4,71.2,542,294.2,850.4,1059.8
			s-164.3,764.8-309.3,1085.4c-158.2,349.9-30.3,440,175.3,916.6C880.9,3443,308.4,3899.7,1.5,4080.4z"/>
	</g>
	<path class="st1" d="M1603.2,4081"/>
</g>
</svg>
